<?xml version="1.0" encoding="UTF-8"?>
<svg xmlns="http://www.w3.org/2000/svg" xmlns:xlink="http://www.w3.org/1999/xlink" width="40pt" height="40pt" viewBox="0 0 40 40" version="1.1">
<g id="surface1">
<path style=" stroke:none;fill-rule:nonzero;fill:rgb(0%,0%,0%);fill-opacity:1;" d="M 20.253906 36.929688 C 20.253906 38.453125 19.019531 39.683594 17.5 39.683594 C 15.980469 39.683594 14.75 38.453125 14.75 36.929688 C 14.75 35.410156 15.980469 34.179688 17.5 34.179688 C 19.019531 34.179688 20.253906 35.410156 20.253906 36.929688 Z M 20.253906 36.929688 "/>
<path style=" stroke:none;fill-rule:nonzero;fill:rgb(0%,0%,0%);fill-opacity:1;" d="M 16.457031 29.664062 C 16.457031 31.585938 14.898438 33.144531 12.972656 33.144531 C 11.050781 33.144531 9.492188 31.585938 9.492188 29.664062 C 9.492188 27.738281 11.050781 26.179688 12.972656 26.179688 C 14.898438 26.179688 16.457031 27.738281 16.457031 29.664062 Z M 16.457031 29.664062 "/>
<path style=" stroke:none;fill-rule:nonzero;fill:rgb(0%,0%,0%);fill-opacity:1;" d="M 25.519531 29.664062 C 25.519531 31.585938 23.960938 33.144531 22.039062 33.144531 C 20.113281 33.144531 18.554688 31.585938 18.554688 29.664062 C 18.554688 27.738281 20.113281 26.179688 22.039062 26.179688 C 23.960938 26.179688 25.519531 27.738281 25.519531 29.664062 Z M 25.519531 29.664062 "/>
<path style=" stroke:none;fill-rule:nonzero;fill:rgb(0%,0%,0%);fill-opacity:1;" d="M 11.761719 22.277344 C 11.761719 24.292969 10.128906 25.925781 8.113281 25.925781 C 6.097656 25.925781 4.464844 24.292969 4.464844 22.277344 C 4.464844 20.261719 6.097656 18.628906 8.113281 18.628906 C 10.128906 18.628906 11.761719 20.261719 11.761719 22.277344 Z M 11.761719 22.277344 "/>
<path style=" stroke:none;fill-rule:nonzero;fill:rgb(0%,0%,0%);fill-opacity:1;" d="M 21.148438 22.277344 C 21.148438 24.292969 19.515625 25.925781 17.5 25.925781 C 15.484375 25.925781 13.851562 24.292969 13.851562 22.277344 C 13.851562 20.261719 15.484375 18.628906 17.5 18.628906 C 19.515625 18.628906 21.148438 20.261719 21.148438 22.277344 Z M 21.148438 22.277344 "/>
<path style=" stroke:none;fill-rule:nonzero;fill:rgb(0%,0%,0%);fill-opacity:1;" d="M 30.550781 22.277344 C 30.550781 24.292969 28.914062 25.925781 26.902344 25.925781 C 24.886719 25.925781 23.25 24.292969 23.25 22.277344 C 23.25 20.261719 24.886719 18.628906 26.902344 18.628906 C 28.914062 18.628906 30.550781 20.261719 30.550781 22.277344 Z M 30.550781 22.277344 "/>
<path style=" stroke:none;fill-rule:nonzero;fill:rgb(0%,0%,0%);fill-opacity:1;" d="M 16.21875 14.796875 C 16.21875 16.9375 14.484375 18.667969 12.34375 18.667969 C 10.207031 18.667969 8.472656 16.9375 8.472656 14.796875 C 8.472656 12.65625 10.207031 10.925781 12.34375 10.925781 C 14.484375 10.925781 16.21875 12.65625 16.21875 14.796875 Z M 16.21875 14.796875 "/>
<path style=" stroke:none;fill-rule:nonzero;fill:rgb(0%,0%,0%);fill-opacity:1;" d="M 26.417969 14.796875 C 26.417969 16.9375 24.683594 18.667969 22.542969 18.667969 C 20.410156 18.667969 18.671875 16.9375 18.671875 14.796875 C 18.671875 12.65625 20.410156 10.925781 22.542969 10.925781 C 24.683594 10.925781 26.417969 12.65625 26.417969 14.796875 Z M 26.417969 14.796875 "/>
<path style=" stroke:none;fill-rule:nonzero;fill:rgb(0%,0%,0%);fill-opacity:1;" d="M 18.25 11.453125 C 18.25 11.453125 18.792969 8.652344 20.394531 5.546875 C 21.191406 4.003906 25.140625 0.652344 25.140625 0.652344 C 25.503906 0.238281 25.363281 0.015625 24.828125 0.152344 L 22.164062 0.847656 C 21.632812 0.988281 20.777344 0.9375 20.261719 0.738281 L 18.527344 0.0625 C 18.015625 -0.136719 17.59375 0.152344 17.59375 0.699219 L 17.59375 11.207031 C 17.59375 11.757812 17.890625 11.867188 18.25 11.453125 Z M 18.25 11.453125 "/>
<path style=" stroke:none;fill-rule:nonzero;fill:rgb(0%,0%,0%);fill-opacity:1;" d="M 33.617188 3.269531 C 32.535156 2.121094 31.070312 1.464844 29.496094 1.417969 C 27.570312 1.359375 25.730469 2.050781 24.328125 3.375 C 22.921875 4.695312 22.117188 6.488281 22.058594 8.417969 C 22.046875 8.753906 22.316406 9.039062 22.65625 9.050781 C 22.996094 9.058594 23.28125 8.792969 23.292969 8.453125 C 23.339844 6.855469 24.007812 5.371094 25.171875 4.273438 C 26.335938 3.175781 27.863281 2.597656 29.457031 2.648438 C 30.703125 2.683594 31.859375 3.207031 32.714844 4.113281 C 33.570312 5.023438 34.023438 6.210938 33.984375 7.457031 C 33.921875 9.445312 32.253906 11.015625 30.265625 10.957031 C 28.738281 10.910156 27.535156 9.632812 27.582031 8.105469 C 27.601562 7.550781 27.832031 7.03125 28.238281 6.648438 C 28.644531 6.265625 29.175781 6.0625 29.734375 6.082031 C 30.148438 6.09375 30.53125 6.269531 30.816406 6.570312 C 31.097656 6.871094 31.246094 7.265625 31.234375 7.675781 C 31.226562 8.015625 31.492188 8.300781 31.832031 8.3125 C 32.175781 8.320312 32.457031 8.054688 32.46875 7.714844 C 32.488281 6.972656 32.222656 6.265625 31.710938 5.722656 C 31.203125 5.183594 30.515625 4.875 29.769531 4.847656 C 28.882812 4.824219 28.042969 5.144531 27.394531 5.75 C 26.75 6.359375 26.375 7.183594 26.351562 8.070312 C 26.285156 10.273438 28.023438 12.121094 30.226562 12.1875 C 30.277344 12.191406 30.324219 12.191406 30.375 12.191406 C 31.617188 12.191406 32.789062 11.726562 33.691406 10.871094 C 34.636719 9.984375 35.175781 8.785156 35.214844 7.492188 C 35.265625 5.917969 34.695312 4.417969 33.617188 3.269531 Z M 33.617188 3.269531 "/>
</g>
</svg>
