<?xml version="1.0" encoding="UTF-8"?>
<svg xmlns="http://www.w3.org/2000/svg" xmlns:xlink="http://www.w3.org/1999/xlink" width="50pt" height="50pt" viewBox="0 0 50 50" version="1.1">
<g id="surface1">
<path style=" stroke:none;fill-rule:nonzero;fill:rgb(0%,0%,0%);fill-opacity:1;" d="M 25.519531 46.53125 C 25.519531 48.449219 23.964844 50 22.050781 50 C 20.136719 50 18.585938 48.449219 18.585938 46.53125 C 18.585938 44.617188 20.136719 43.066406 22.050781 43.066406 C 23.964844 43.066406 25.519531 44.617188 25.519531 46.53125 Z M 25.519531 46.53125 "/>
<path style=" stroke:none;fill-rule:nonzero;fill:rgb(0%,0%,0%);fill-opacity:1;" d="M 20.738281 37.375 C 20.738281 39.796875 18.773438 41.761719 16.347656 41.761719 C 13.925781 41.761719 11.960938 39.796875 11.960938 37.375 C 11.960938 34.949219 13.925781 32.984375 16.347656 32.984375 C 18.773438 32.984375 20.738281 34.949219 20.738281 37.375 Z M 20.738281 37.375 "/>
<path style=" stroke:none;fill-rule:nonzero;fill:rgb(0%,0%,0%);fill-opacity:1;" d="M 32.15625 37.375 C 32.15625 39.796875 30.191406 41.761719 27.769531 41.761719 C 25.34375 41.761719 23.378906 39.796875 23.378906 37.375 C 23.378906 34.949219 25.34375 32.984375 27.769531 32.984375 C 30.191406 32.984375 32.15625 34.949219 32.15625 37.375 Z M 32.15625 37.375 "/>
<path style=" stroke:none;fill-rule:nonzero;fill:rgb(0%,0%,0%);fill-opacity:1;" d="M 14.820312 28.070312 C 14.820312 30.609375 12.761719 32.664062 10.222656 32.664062 C 7.683594 32.664062 5.625 30.609375 5.625 28.070312 C 5.625 25.53125 7.683594 23.472656 10.222656 23.472656 C 12.761719 23.472656 14.820312 25.53125 14.820312 28.070312 Z M 14.820312 28.070312 "/>
<path style=" stroke:none;fill-rule:nonzero;fill:rgb(0%,0%,0%);fill-opacity:1;" d="M 26.648438 28.070312 C 26.648438 30.609375 24.589844 32.664062 22.050781 32.664062 C 19.511719 32.664062 17.453125 30.609375 17.453125 28.070312 C 17.453125 25.53125 19.511719 23.472656 22.050781 23.472656 C 24.589844 23.472656 26.648438 25.53125 26.648438 28.070312 Z M 26.648438 28.070312 "/>
<path style=" stroke:none;fill-rule:nonzero;fill:rgb(0%,0%,0%);fill-opacity:1;" d="M 38.492188 28.070312 C 38.492188 30.609375 36.433594 32.664062 33.894531 32.664062 C 31.355469 32.664062 29.296875 30.609375 29.296875 28.070312 C 29.296875 25.53125 31.355469 23.472656 33.894531 23.472656 C 36.433594 23.472656 38.492188 25.53125 38.492188 28.070312 Z M 38.492188 28.070312 "/>
<path style=" stroke:none;fill-rule:nonzero;fill:rgb(0%,0%,0%);fill-opacity:1;" d="M 20.433594 18.644531 C 20.433594 21.339844 18.25 23.523438 15.554688 23.523438 C 12.859375 23.523438 10.675781 21.339844 10.675781 18.644531 C 10.675781 15.949219 12.859375 13.765625 15.554688 13.765625 C 18.25 13.765625 20.433594 15.949219 20.433594 18.644531 Z M 20.433594 18.644531 "/>
<path style=" stroke:none;fill-rule:nonzero;fill:rgb(0%,0%,0%);fill-opacity:1;" d="M 33.289062 18.644531 C 33.289062 21.339844 31.101562 23.523438 28.40625 23.523438 C 25.714844 23.523438 23.527344 21.339844 23.527344 18.644531 C 23.527344 15.949219 25.714844 13.765625 28.40625 13.765625 C 31.101562 13.765625 33.289062 15.949219 33.289062 18.644531 Z M 33.289062 18.644531 "/>
<path style=" stroke:none;fill-rule:nonzero;fill:rgb(0%,0%,0%);fill-opacity:1;" d="M 22.996094 14.429688 C 22.996094 14.429688 23.679688 10.902344 25.699219 6.988281 C 26.699219 5.046875 31.675781 0.824219 31.675781 0.824219 C 32.132812 0.300781 31.957031 0.0195312 31.285156 0.191406 L 27.925781 1.070312 C 27.257812 1.246094 26.179688 1.183594 25.53125 0.929688 L 23.34375 0.078125 C 22.699219 -0.171875 22.167969 0.191406 22.167969 0.882812 L 22.167969 14.121094 C 22.167969 14.8125 22.542969 14.953125 22.996094 14.429688 Z M 22.996094 14.429688 "/>
<path style=" stroke:none;fill-rule:nonzero;fill:rgb(0%,0%,0%);fill-opacity:1;" d="M 42.355469 4.121094 C 40.992188 2.671875 39.148438 1.84375 37.164062 1.785156 C 34.738281 1.710938 32.421875 2.585938 30.652344 4.253906 C 28.882812 5.917969 27.867188 8.175781 27.792969 10.605469 C 27.78125 11.03125 28.117188 11.390625 28.546875 11.402344 C 28.976562 11.414062 29.332031 11.078125 29.347656 10.652344 C 29.40625 8.636719 30.25 6.765625 31.71875 5.382812 C 33.183594 4.003906 35.105469 3.273438 37.117188 3.335938 C 38.6875 3.382812 40.144531 4.039062 41.222656 5.183594 C 42.300781 6.328125 42.867188 7.824219 42.820312 9.394531 C 42.742188 11.902344 40.640625 13.878906 38.132812 13.804688 C 36.210938 13.746094 34.695312 12.136719 34.753906 10.214844 C 34.777344 9.511719 35.070312 8.859375 35.582031 8.378906 C 36.09375 7.894531 36.761719 7.640625 37.464844 7.664062 C 37.988281 7.679688 38.46875 7.898438 38.828125 8.277344 C 39.183594 8.65625 39.371094 9.152344 39.355469 9.671875 C 39.34375 10.101562 39.679688 10.460938 40.109375 10.472656 C 40.539062 10.484375 40.894531 10.148438 40.910156 9.71875 C 40.9375 8.785156 40.601562 7.894531 39.957031 7.210938 C 39.316406 6.53125 38.449219 6.140625 37.511719 6.109375 C 36.394531 6.078125 35.332031 6.480469 34.515625 7.246094 C 33.703125 8.011719 33.234375 9.050781 33.203125 10.167969 C 33.117188 12.945312 35.308594 15.273438 38.085938 15.355469 C 38.148438 15.359375 38.210938 15.359375 38.273438 15.359375 C 39.835938 15.359375 41.3125 14.773438 42.453125 13.699219 C 43.640625 12.582031 44.320312 11.070312 44.371094 9.441406 C 44.433594 7.457031 43.714844 5.566406 42.355469 4.121094 Z M 42.355469 4.121094 "/>
</g>
</svg>
